<?xml version="1.0" encoding="UTF-8" standalone="no"?>
<?xml-stylesheet href="jurassic-park.css" type="text/css"?>
<svg xmlns="http://www.w3.org/2000/svg" xmlns:xlink="http://www.w3.org/1999/xlink" version="1.1" width="1446" height="340">
<title>OpenTimeLine</title>  <!-- All the events -->
  <path d="M297 74 L297 260" _date="1" _type="event"><title>1</title></path>
  <path d="M1165 54 L1165 300" _date="10" _type="event"><title>10</title></path>
  <path d="M393 134 L393 300" _date="2" _type="event"><title>2</title></path>
  <path d="M490 154 L490 280" _date="3" _type="event"><title>3</title></path>
  <path d="M586 74 L586 260" _date="4" _type="event"><title>4</title></path>
  <path d="M683 114 L683 220" _date="5" _type="event"><title>5</title></path>
  <path d="M779 34 L779 140" _date="6" _type="event"><title>6</title></path>
  <path d="M876 114 L876 300" _date="7" _type="event"><title>7</title></path>
  <path d="M972 114 L972 120" _date="8" _type="event"><title>8</title></path>
  <path d="M1068 34 L1068 80" _date="9" _type="event"><title>9</title></path>
  <path d="M104,220 L683,220 L1358,220" _type="actor" entity="human"/> <!-- arnold -->
  <path d="M104,160 L490,160 L1358,160" _type="actor" entity="dinosaur"/> <!-- dilphosauraus -->
  <path d="M972,120 L1165,120" _type="actor" entity="dinosaur"/> <!-- raptor-3 -->
  <path d="M104,180 L297,180" _type="actor" entity="human"/> <!-- gennard -->
  <path d="M104,100 L586,100 L1165,100 L1358,100" _type="actor" entity="human"/> <!-- grant -->
  <path d="M104,240 L1358,240" _type="actor" entity="human"/> <!-- hammond -->
  <path d="M104,80 L297,80 L586,80 L1068,80 L1165,80 L1358,80" _type="actor" entity="human"/> <!-- kids -->
  <path d="M876,120 L972,120" _type="actor" entity="locked-up"/> <!-- raptor-3 -->
  <path d="M104,200 L297,200 L393,200 L1358,200" _type="actor" entity="human"/> <!-- malcom -->
  <path d="M104,140 L393,140 L779,140" _type="actor" entity="human"/> <!-- muldoon -->
  <path d="M104,280 L490,280" _type="actor" entity="human"/> <!-- nedry -->
  <path d="M104,60 L779,60 L1068,60 L1165,60" _type="actor" entity="dinosaur"/> <!-- raptor-1 -->
  <path d="M104,40 L779,40 L1068,40" _type="actor" entity="dinosaur"/> <!-- raptor-2 -->
  <path d="M104,120 L683,120 L876,120" _type="actor" entity="dinosaur"/> <!-- raptor-3 -->
  <path d="M104,300 L393,300 L876,300 L1165,300 L1358,300" _type="actor" entity="human"/> <!-- sattler -->
  <path d="M104,260 L297,260 L586,260 L1165,260 L1358,260" _type="actor" entity="dinosaur"/> <!-- t-rex -->
  <defs><path id="0" d="M104,220 L683,220 L1358,220 L2358,220" _type="actor" name="ARNOLD"/></defs>
  <text _type="actor" x="5"><textPath _order="back" xlink:href="#0">ARNOLD</textPath></text>
  <text _type="actor" x="5"><textPath _order="front" xlink:href="#0">ARNOLD</textPath></text>
  <defs><path id="1" d="M104,160 L490,160 L1358,160 L2358,160" _type="actor" name="DILPHOSAURAUS"/></defs>
  <text _type="actor" x="5"><textPath _order="back" xlink:href="#1">DILPHOSAURAUS</textPath></text>
  <text _type="actor" x="5"><textPath _order="front" xlink:href="#1">DILPHOSAURAUS</textPath></text>
  <defs><path id="2" d="M104,180 L297,180 L1297,180" _type="actor" name="GENNARD"/></defs>
  <text _type="actor" x="5"><textPath _order="back" xlink:href="#2">GENNARD</textPath></text>
  <text _type="actor" x="5"><textPath _order="front" xlink:href="#2">GENNARD</textPath></text>
  <defs><path id="3" d="M104,100 L586,100 L1165,100 L1358,100 L2358,100" _type="actor" name="GRANT"/></defs>
  <text _type="actor" x="5"><textPath _order="back" xlink:href="#3">GRANT</textPath></text>
  <text _type="actor" x="5"><textPath _order="front" xlink:href="#3">GRANT</textPath></text>
  <defs><path id="4" d="M104,240 L1358,240 L2358,240" _type="actor" name="HAMMOND"/></defs>
  <text _type="actor" x="5"><textPath _order="back" xlink:href="#4">HAMMOND</textPath></text>
  <text _type="actor" x="5"><textPath _order="front" xlink:href="#4">HAMMOND</textPath></text>
  <defs><path id="5" d="M104,80 L297,80 L586,80 L1068,80 L1165,80 L1358,80 L2358,80" _type="actor" name="KIDS"/></defs>
  <text _type="actor" x="5"><textPath _order="back" xlink:href="#5">KIDS</textPath></text>
  <text _type="actor" x="5"><textPath _order="front" xlink:href="#5">KIDS</textPath></text>
  <defs><path id="6" d="M104,200 L297,200 L393,200 L1358,200 L2358,200" _type="actor" name="MALCOM"/></defs>
  <text _type="actor" x="5"><textPath _order="back" xlink:href="#6">MALCOM</textPath></text>
  <text _type="actor" x="5"><textPath _order="front" xlink:href="#6">MALCOM</textPath></text>
  <defs><path id="7" d="M104,140 L393,140 L779,140 L1779,140" _type="actor" name="MULDOON"/></defs>
  <text _type="actor" x="5"><textPath _order="back" xlink:href="#7">MULDOON</textPath></text>
  <text _type="actor" x="5"><textPath _order="front" xlink:href="#7">MULDOON</textPath></text>
  <defs><path id="8" d="M104,280 L490,280 L1490,280" _type="actor" name="NEDRY"/></defs>
  <text _type="actor" x="5"><textPath _order="back" xlink:href="#8">NEDRY</textPath></text>
  <text _type="actor" x="5"><textPath _order="front" xlink:href="#8">NEDRY</textPath></text>
  <defs><path id="9" d="M104,60 L779,60 L1068,60 L1165,60 L2165,60" _type="actor" name="RAPTOR-1"/></defs>
  <text _type="actor" x="5"><textPath _order="back" xlink:href="#9">RAPTOR-1</textPath></text>
  <text _type="actor" x="5"><textPath _order="front" xlink:href="#9">RAPTOR-1</textPath></text>
  <defs><path id="10" d="M104,40 L779,40 L1068,40 L2068,40" _type="actor" name="RAPTOR-2"/></defs>
  <text _type="actor" x="5"><textPath _order="back" xlink:href="#10">RAPTOR-2</textPath></text>
  <text _type="actor" x="5"><textPath _order="front" xlink:href="#10">RAPTOR-2</textPath></text>
  <defs><path id="11" d="M104,120 L683,120 L876,120 L972,120 L1165,120 L2165,120" _type="actor" name="RAPTOR-3"/></defs>
  <text _type="actor" x="5"><textPath _order="back" xlink:href="#11">RAPTOR-3</textPath></text>
  <text _type="actor" x="5"><textPath _order="front" xlink:href="#11">RAPTOR-3</textPath></text>
  <defs><path id="12" d="M104,300 L393,300 L876,300 L1165,300 L1358,300 L2358,300" _type="actor" name="SATTLER"/></defs>
  <text _type="actor" x="5"><textPath _order="back" xlink:href="#12">SATTLER</textPath></text>
  <text _type="actor" x="5"><textPath _order="front" xlink:href="#12">SATTLER</textPath></text>
  <defs><path id="13" d="M104,260 L297,260 L586,260 L1165,260 L1358,260 L2358,260" _type="actor" name="T-REX"/></defs>
  <text _type="actor" x="5"><textPath _order="back" xlink:href="#13">T-REX</textPath></text>
  <text _type="actor" x="5"><textPath _order="front" xlink:href="#13">T-REX</textPath></text>
  <circle cx="683" cy="220" r="3" participant="died" _type="event"><title>5: died</title></circle> <!-- shed -->
  <circle cx="490" cy="160" r="3" participant="" _type="event"><title>3: </title></circle> <!-- nedry-eaten -->
  <circle cx="297" cy="180" r="3" participant="died" _type="event"><title>1: died</title></circle> <!-- attack-on-cars -->
  <circle cx="1165" cy="100" r="3" participant="" _type="event"><title>10: </title></circle> <!-- visitor-center -->
  <circle cx="586" cy="100" r="3" participant="" _type="event"><title>4: </title></circle> <!-- gallimimus -->
  <circle cx="1068" cy="80" r="3" participant="" _type="event"><title>9: </title></circle> <!-- kitchen -->
  <circle cx="297" cy="80" r="3" participant="" _type="event"><title>1: </title></circle> <!-- attack-on-cars -->
  <circle cx="1165" cy="80" r="3" participant="" _type="event"><title>10: </title></circle> <!-- visitor-center -->
  <circle cx="586" cy="80" r="3" participant="" _type="event"><title>4: </title></circle> <!-- gallimimus -->
  <circle cx="393" cy="200" r="3" participant="" _type="event"><title>2: </title></circle> <!-- must-go-faster -->
  <circle cx="297" cy="200" r="3" participant="" _type="event"><title>1: </title></circle> <!-- attack-on-cars -->
  <circle cx="393" cy="140" r="3" participant="" _type="event"><title>2: </title></circle> <!-- must-go-faster -->
  <circle cx="779" cy="140" r="3" participant="died" _type="event"><title>6: died</title></circle> <!-- clever-girl -->
  <circle cx="490" cy="280" r="3" participant="died" _type="event"><title>3: died</title></circle> <!-- nedry-eaten -->
  <circle cx="1068" cy="60" r="3" participant="" _type="event"><title>9: </title></circle> <!-- kitchen -->
  <circle cx="779" cy="60" r="3" participant="" _type="event"><title>6: </title></circle> <!-- clever-girl -->
  <circle cx="1165" cy="60" r="3" participant="died" _type="event"><title>10: died</title></circle> <!-- visitor-center -->
  <circle cx="779" cy="40" r="3" participant="" _type="event"><title>6: </title></circle> <!-- clever-girl -->
  <circle cx="1068" cy="40" r="3" participant="locked-up" _type="event"><title>9: locked-up</title></circle> <!-- kitchen -->
  <circle cx="683" cy="120" r="3" participant="" _type="event"><title>5: </title></circle> <!-- shed -->
  <circle cx="1165" cy="120" r="3" participant="died" _type="event"><title>10: died</title></circle> <!-- visitor-center -->
  <circle cx="972" cy="120" r="3" participant="escape" _type="event"><title>8: escape</title></circle> <!-- escapes -->
  <circle cx="876" cy="120" r="3" participant="locked-up" _type="event"><title>7: locked-up</title></circle> <!-- locked-up -->
  <circle cx="393" cy="300" r="3" participant="" _type="event"><title>2: </title></circle> <!-- must-go-faster -->
  <circle cx="1165" cy="300" r="3" participant="" _type="event"><title>10: </title></circle> <!-- visitor-center -->
  <circle cx="876" cy="300" r="3" participant="" _type="event"><title>7: </title></circle> <!-- locked-up -->
  <circle cx="297" cy="260" r="3" participant="" _type="event"><title>1: </title></circle> <!-- attack-on-cars -->
  <circle cx="1165" cy="260" r="3" participant="" _type="event"><title>10: </title></circle> <!-- visitor-center -->
  <circle cx="586" cy="260" r="3" participant="" _type="event"><title>4: </title></circle> <!-- gallimimus -->
  <text x="299" y="72" _type="event">ATTACK-ON-CARS</text>
  <text x="781" y="32" _type="event">CLEVER-GIRL</text>
  <text x="974" y="112" _type="event">ESCAPES</text>
  <text x="588" y="72" _type="event">GALLIMIMUS</text>
  <text x="1070" y="32" _type="event">KITCHEN</text>
  <text x="878" y="112" _type="event">LOCKED-UP</text>
  <text x="395" y="132" _type="event">MUST-GO-FASTER</text>
  <text x="492" y="152" _type="event">NEDRY-EATEN</text>
  <text x="685" y="112" _type="event">SHED</text>
  <text x="1167" y="52" _type="event">VISITOR-CENTER</text>
</svg>