<?xml version="1.0" encoding="UTF-8" standalone="no"?>
<svg xmlns="http://www.w3.org/2000/svg" xmlns:xlink="http://www.w3.org/1999/xlink" version="1.1" width="1446" height="340">
<title>OpenTimeLine</title><style type="text/css">
<![CDATA[
path
{
	fill : none;
}

path
{
	stroke-linejoin: butt;
	stroke:rgb(128,128,128);
	stroke-width: 2;
}

path[entity="human"]
{
	stroke: black;
	stroke-linejoin: butt;
	stroke:rgb(0,0,0);
	stroke-width: 2;
}

path[entity="dinosaur"]
{
	stroke: red;
	stroke-linejoin: butt;
	stroke:rgb(255,0,0);
	stroke-width: 2;
}

path[entity="locked-up"]
{
	stroke: red;
	stroke-linejoin: butt;
	stroke-dasharray: 5,5;
	stroke:rgb(255,0,0);
	stroke-width: 2;
}

circle[participant="died"]
{
  stroke: rgba(255,0,0,0.8);
  stroke-width: 0;
  fill: rgba(255,0,0,0.8);
}

textPath, text
{
	dominant-baseline: central;
	font-size: 8pt;
}

textPath[_order="back"]
{
	dominant-baseline: central;
	stroke-linejoin: round;
	stroke: red;
	stroke:rgb(255,255,255);
	stroke-width: 8;
}]]>
</style>
  <!-- All the events -->
  <path d="M297 74 L297 300" _date="1" _type="event"><title>1</title></path>
  <path d="M1165 94 L1165 300" _date="10" _type="event"><title>10</title></path>
  <path d="M393 154 L393 280" _date="2" _type="event"><title>2</title></path>
  <path d="M490 54 L490 200" _date="3" _type="event"><title>3</title></path>
  <path d="M586 94 L586 300" _date="4" _type="event"><title>4</title></path>
  <path d="M683 34 L683 260" _date="5" _type="event"><title>5</title></path>
  <path d="M779 174 L779 240" _date="6" _type="event"><title>6</title></path>
  <path d="M876 254 L876 280" _date="7" _type="event"><title>7</title></path>
  <path d="M972 254 L972 260" _date="8" _type="event"><title>8</title></path>
  <path d="M1068 134 L1068 240" _date="9" _type="event"><title>9</title></path>
  <path d="M104,40 L683,40 L1358,40" _type="actor" entity="human"/> <!-- arnold -->
  <path d="M104,60 L490,60 L1358,60" _type="actor" entity="dinosaur"/> <!-- dilphosauraus -->
  <path d="M972,260 L1165,260" _type="actor" entity="dinosaur"/> <!-- raptor-3 -->
  <path d="M104,80 L297,80" _type="actor" entity="human"/> <!-- gennard -->
  <path d="M104,100 L586,100 L1165,100 L1358,100" _type="actor" entity="human"/> <!-- grant -->
  <path d="M104,120 L1358,120" _type="actor" entity="human"/> <!-- hammond -->
  <path d="M104,140 L297,140 L586,140 L1068,140 L1165,140 L1358,140" _type="actor" entity="human"/> <!-- kids -->
  <path d="M876,260 L972,260" _type="actor" entity="locked-up"/> <!-- raptor-3 -->
  <path d="M104,160 L297,160 L393,160 L1358,160" _type="actor" entity="human"/> <!-- malcom -->
  <path d="M104,180 L393,180 L779,180" _type="actor" entity="human"/> <!-- muldoon -->
  <path d="M104,200 L490,200" _type="actor" entity="human"/> <!-- nedry -->
  <path d="M104,220 L779,220 L1068,220 L1165,220" _type="actor" entity="dinosaur"/> <!-- raptor-1 -->
  <path d="M104,240 L779,240 L1068,240" _type="actor" entity="dinosaur"/> <!-- raptor-2 -->
  <path d="M104,260 L683,260 L876,260" _type="actor" entity="dinosaur"/> <!-- raptor-3 -->
  <path d="M104,280 L393,280 L876,280 L1165,280 L1358,280" _type="actor" entity="human"/> <!-- sattler -->
  <path d="M104,300 L297,300 L586,300 L1165,300 L1358,300" _type="actor" entity="dinosaur"/> <!-- t-rex -->
  <circle cx="683" cy="40" r="5" participant="died" _type="event" _order="back"><title>5: died</title></circle> <!-- shed -->
  <circle cx="490" cy="60" r="5" participant="" _type="event" _order="back"><title>3: </title></circle> <!-- nedry-eaten -->
  <circle cx="297" cy="80" r="5" participant="died" _type="event" _order="back"><title>1: died</title></circle> <!-- attack-on-cars -->
  <circle cx="586" cy="100" r="5" participant="" _type="event" _order="back"><title>4: </title></circle> <!-- gallimimus -->
  <circle cx="1165" cy="100" r="5" participant="" _type="event" _order="back"><title>10: </title></circle> <!-- visitor-center -->
  <circle cx="1068" cy="140" r="5" participant="" _type="event" _order="back"><title>9: </title></circle> <!-- kitchen -->
  <circle cx="586" cy="140" r="5" participant="" _type="event" _order="back"><title>4: </title></circle> <!-- gallimimus -->
  <circle cx="1165" cy="140" r="5" participant="" _type="event" _order="back"><title>10: </title></circle> <!-- visitor-center -->
  <circle cx="297" cy="140" r="5" participant="" _type="event" _order="back"><title>1: </title></circle> <!-- attack-on-cars -->
  <circle cx="393" cy="160" r="5" participant="" _type="event" _order="back"><title>2: </title></circle> <!-- must-go-faster -->
  <circle cx="297" cy="160" r="5" participant="" _type="event" _order="back"><title>1: </title></circle> <!-- attack-on-cars -->
  <circle cx="393" cy="180" r="5" participant="" _type="event" _order="back"><title>2: </title></circle> <!-- must-go-faster -->
  <circle cx="779" cy="180" r="5" participant="died" _type="event" _order="back"><title>6: died</title></circle> <!-- clever-girl -->
  <circle cx="490" cy="200" r="5" participant="died" _type="event" _order="back"><title>3: died</title></circle> <!-- nedry-eaten -->
  <circle cx="1068" cy="220" r="5" participant="" _type="event" _order="back"><title>9: </title></circle> <!-- kitchen -->
  <circle cx="779" cy="220" r="5" participant="" _type="event" _order="back"><title>6: </title></circle> <!-- clever-girl -->
  <circle cx="1165" cy="220" r="5" participant="died" _type="event" _order="back"><title>10: died</title></circle> <!-- visitor-center -->
  <circle cx="779" cy="240" r="5" participant="" _type="event" _order="back"><title>6: </title></circle> <!-- clever-girl -->
  <circle cx="1068" cy="240" r="5" participant="locked-up" _type="event" _order="back"><title>9: locked-up</title></circle> <!-- kitchen -->
  <circle cx="683" cy="260" r="5" participant="" _type="event" _order="back"><title>5: </title></circle> <!-- shed -->
  <circle cx="1165" cy="260" r="5" participant="died" _type="event" _order="back"><title>10: died</title></circle> <!-- visitor-center -->
  <circle cx="972" cy="260" r="5" participant="escape" _type="event" _order="back"><title>8: escape</title></circle> <!-- escapes -->
  <circle cx="876" cy="260" r="5" participant="locked-up" _type="event" _order="back"><title>7: locked-up</title></circle> <!-- locked-up -->
  <circle cx="393" cy="280" r="5" participant="" _type="event" _order="back"><title>2: </title></circle> <!-- must-go-faster -->
  <circle cx="1165" cy="280" r="5" participant="" _type="event" _order="back"><title>10: </title></circle> <!-- visitor-center -->
  <circle cx="876" cy="280" r="5" participant="" _type="event" _order="back"><title>7: </title></circle> <!-- locked-up -->
  <circle cx="586" cy="300" r="5" participant="" _type="event" _order="back"><title>4: </title></circle> <!-- gallimimus -->
  <circle cx="1165" cy="300" r="5" participant="" _type="event" _order="back"><title>10: </title></circle> <!-- visitor-center -->
  <circle cx="297" cy="300" r="5" participant="" _type="event" _order="back"><title>1: </title></circle> <!-- attack-on-cars -->
  <text x="299" y="72" _type="event" _order="back">ATTACK-ON-CARS</text>
  <text x="781" y="172" _type="event" _order="back">CLEVER-GIRL</text>
  <text x="974" y="252" _type="event" _order="back">ESCAPES</text>
  <text x="588" y="92" _type="event" _order="back">GALLIMIMUS</text>
  <text x="1070" y="132" _type="event" _order="back">KITCHEN</text>
  <text x="878" y="252" _type="event" _order="back">LOCKED-UP</text>
  <text x="395" y="152" _type="event" _order="back">MUST-GO-FASTER</text>
  <text x="492" y="52" _type="event" _order="back">NEDRY-EATEN</text>
  <text x="685" y="32" _type="event" _order="back">SHED</text>
  <text x="1167" y="92" _type="event" _order="back">VISITOR-CENTER</text>
  <defs><path id="0" d="M104,40 L683,40 L1358,40 L2358,40" _type="actor" name="ARNOLD"/></defs>
  <text _type="actor" x="5"><textPath _order="back" xlink:href="#0">ARNOLD</textPath></text>
  <defs><path id="1" d="M104,60 L490,60 L1358,60 L2358,60" _type="actor" name="DILPHOSAURAUS"/></defs>
  <text _type="actor" x="5"><textPath _order="back" xlink:href="#1">DILPHOSAURAUS</textPath></text>
  <defs><path id="2" d="M104,80 L297,80 L1297,80" _type="actor" name="GENNARD"/></defs>
  <text _type="actor" x="5"><textPath _order="back" xlink:href="#2">GENNARD</textPath></text>
  <defs><path id="3" d="M104,100 L586,100 L1165,100 L1358,100 L2358,100" _type="actor" name="GRANT"/></defs>
  <text _type="actor" x="5"><textPath _order="back" xlink:href="#3">GRANT</textPath></text>
  <defs><path id="4" d="M104,120 L1358,120 L2358,120" _type="actor" name="HAMMOND"/></defs>
  <text _type="actor" x="5"><textPath _order="back" xlink:href="#4">HAMMOND</textPath></text>
  <defs><path id="5" d="M104,140 L297,140 L586,140 L1068,140 L1165,140 L1358,140 L2358,140" _type="actor" name="KIDS"/></defs>
  <text _type="actor" x="5"><textPath _order="back" xlink:href="#5">KIDS</textPath></text>
  <defs><path id="6" d="M104,160 L297,160 L393,160 L1358,160 L2358,160" _type="actor" name="MALCOM"/></defs>
  <text _type="actor" x="5"><textPath _order="back" xlink:href="#6">MALCOM</textPath></text>
  <defs><path id="7" d="M104,180 L393,180 L779,180 L1779,180" _type="actor" name="MULDOON"/></defs>
  <text _type="actor" x="5"><textPath _order="back" xlink:href="#7">MULDOON</textPath></text>
  <defs><path id="8" d="M104,200 L490,200 L1490,200" _type="actor" name="NEDRY"/></defs>
  <text _type="actor" x="5"><textPath _order="back" xlink:href="#8">NEDRY</textPath></text>
  <defs><path id="9" d="M104,220 L779,220 L1068,220 L1165,220 L2165,220" _type="actor" name="RAPTOR-1"/></defs>
  <text _type="actor" x="5"><textPath _order="back" xlink:href="#9">RAPTOR-1</textPath></text>
  <defs><path id="10" d="M104,240 L779,240 L1068,240 L2068,240" _type="actor" name="RAPTOR-2"/></defs>
  <text _type="actor" x="5"><textPath _order="back" xlink:href="#10">RAPTOR-2</textPath></text>
  <defs><path id="11" d="M104,260 L683,260 L876,260 L972,260 L1165,260 L2165,260" _type="actor" name="RAPTOR-3"/></defs>
  <text _type="actor" x="5"><textPath _order="back" xlink:href="#11">RAPTOR-3</textPath></text>
  <defs><path id="12" d="M104,280 L393,280 L876,280 L1165,280 L1358,280 L2358,280" _type="actor" name="SATTLER"/></defs>
  <text _type="actor" x="5"><textPath _order="back" xlink:href="#12">SATTLER</textPath></text>
  <defs><path id="13" d="M104,300 L297,300 L586,300 L1165,300 L1358,300 L2358,300" _type="actor" name="T-REX"/></defs>
  <text _type="actor" x="5"><textPath _order="back" xlink:href="#13">T-REX</textPath></text>
  <text x="299" y="72" _type="event" _order="">ATTACK-ON-CARS</text>
  <text x="781" y="172" _type="event" _order="">CLEVER-GIRL</text>
  <text x="974" y="252" _type="event" _order="">ESCAPES</text>
  <text x="588" y="92" _type="event" _order="">GALLIMIMUS</text>
  <text x="1070" y="132" _type="event" _order="">KITCHEN</text>
  <text x="878" y="252" _type="event" _order="">LOCKED-UP</text>
  <text x="395" y="152" _type="event" _order="">MUST-GO-FASTER</text>
  <text x="492" y="52" _type="event" _order="">NEDRY-EATEN</text>
  <text x="685" y="32" _type="event" _order="">SHED</text>
  <text x="1167" y="92" _type="event" _order="">VISITOR-CENTER</text>
  <defs><path id="14" d="M104,40 L683,40 L1358,40 L2358,40" _type="actor" name="ARNOLD"/></defs>
  <text _type="actor" x="5"><textPath _order="" xlink:href="#14">ARNOLD</textPath></text>
  <defs><path id="15" d="M104,60 L490,60 L1358,60 L2358,60" _type="actor" name="DILPHOSAURAUS"/></defs>
  <text _type="actor" x="5"><textPath _order="" xlink:href="#15">DILPHOSAURAUS</textPath></text>
  <defs><path id="16" d="M104,80 L297,80 L1297,80" _type="actor" name="GENNARD"/></defs>
  <text _type="actor" x="5"><textPath _order="" xlink:href="#16">GENNARD</textPath></text>
  <defs><path id="17" d="M104,100 L586,100 L1165,100 L1358,100 L2358,100" _type="actor" name="GRANT"/></defs>
  <text _type="actor" x="5"><textPath _order="" xlink:href="#17">GRANT</textPath></text>
  <defs><path id="18" d="M104,120 L1358,120 L2358,120" _type="actor" name="HAMMOND"/></defs>
  <text _type="actor" x="5"><textPath _order="" xlink:href="#18">HAMMOND</textPath></text>
  <defs><path id="19" d="M104,140 L297,140 L586,140 L1068,140 L1165,140 L1358,140 L2358,140" _type="actor" name="KIDS"/></defs>
  <text _type="actor" x="5"><textPath _order="" xlink:href="#19">KIDS</textPath></text>
  <defs><path id="20" d="M104,160 L297,160 L393,160 L1358,160 L2358,160" _type="actor" name="MALCOM"/></defs>
  <text _type="actor" x="5"><textPath _order="" xlink:href="#20">MALCOM</textPath></text>
  <defs><path id="21" d="M104,180 L393,180 L779,180 L1779,180" _type="actor" name="MULDOON"/></defs>
  <text _type="actor" x="5"><textPath _order="" xlink:href="#21">MULDOON</textPath></text>
  <defs><path id="22" d="M104,200 L490,200 L1490,200" _type="actor" name="NEDRY"/></defs>
  <text _type="actor" x="5"><textPath _order="" xlink:href="#22">NEDRY</textPath></text>
  <defs><path id="23" d="M104,220 L779,220 L1068,220 L1165,220 L2165,220" _type="actor" name="RAPTOR-1"/></defs>
  <text _type="actor" x="5"><textPath _order="" xlink:href="#23">RAPTOR-1</textPath></text>
  <defs><path id="24" d="M104,240 L779,240 L1068,240 L2068,240" _type="actor" name="RAPTOR-2"/></defs>
  <text _type="actor" x="5"><textPath _order="" xlink:href="#24">RAPTOR-2</textPath></text>
  <defs><path id="25" d="M104,260 L683,260 L876,260 L972,260 L1165,260 L2165,260" _type="actor" name="RAPTOR-3"/></defs>
  <text _type="actor" x="5"><textPath _order="" xlink:href="#25">RAPTOR-3</textPath></text>
  <defs><path id="26" d="M104,280 L393,280 L876,280 L1165,280 L1358,280 L2358,280" _type="actor" name="SATTLER"/></defs>
  <text _type="actor" x="5"><textPath _order="" xlink:href="#26">SATTLER</textPath></text>
  <defs><path id="27" d="M104,300 L297,300 L586,300 L1165,300 L1358,300 L2358,300" _type="actor" name="T-REX"/></defs>
  <text _type="actor" x="5"><textPath _order="" xlink:href="#27">T-REX</textPath></text>
</svg>
